<svg fill="none" xmlns="http://www.w3.org/2000/svg">
	<symbol id="arrow" viewBox="0 0 21 20">
		<path fill="currentColor" d="M1.25 13.701C0.532561 14.1152 0.286748 15.0326 0.700962 15.75C1.11518 16.4674 2.03256 16.7133 2.75 16.299L1.25 13.701ZM20.7694 5.38823C20.9838 4.58803 20.5089 3.76552 19.7087 3.55111L6.66874 0.0570541C5.86854 -0.157359 5.04603 0.317515 4.83162 1.11771C4.61721 1.91791 5.09208 2.74042 5.89228 2.95483L17.4834 6.06066L14.3776 17.6518C14.1631 18.452 14.638 19.2745 15.4382 19.4889C16.2384 19.7033 17.0609 19.2284 17.2753 18.4282L20.7694 5.38823ZM2.75 16.299L20.0705 6.29904L18.5705 3.70096L1.25 13.701L2.75 16.299Z" />
	</symbol>

	<symbol id="linkedin" viewBox="0 0 17 17">
		<path fill="currentColor" d="M0.317757 17H3.81308V5.68438H0.317757V17Z" />
		<path fill="currentColor" d="M0 2.07188C0 3.1875 0.900311 4.09062 2.06542 4.09062C3.17757 4.09062 4.07788 3.1875 4.07788 2.07188C4.07788 0.95625 3.17757 0 2.06542 0C0.900311 0 0 0.95625 0 2.07188Z" />
		<path fill="currentColor" d="M13.4517 17H17V10.7844C17 7.75625 16.3115 5.36562 12.7632 5.36562C11.0685 5.36562 9.90343 6.32188 9.42679 7.225H9.37383V5.68438H6.03738V17H9.53271V11.4219C9.53271 9.93437 9.79751 8.5 11.6511 8.5C13.4517 8.5 13.4517 10.2 13.4517 11.475V17Z" />
	</symbol>
</svg>